<svg width="24" height="14" xmlns="http://www.w3.org/2000/svg"><path d="M12.568 12.724l.177-.11c.218-.296.488-.582.81-.86a5.84 5.84 0 00.266-.199c.072-.083.105-.206.099-.367h-.27c-.326.26-.514.352-.564.278-.347.012-.632-.13-.854-.423-.357-.237-.91-.737-1.66-1.5a223.618 223.618 0 00-3.38-3.378L5.41 4.435l-.797-.797a5.838 5.838 0 00-.491-.42l-.563-.563a15.793 15.793 0 01-.999-1.052 5.048 5.048 0 00-.38-.595L1.963.72 1.907.574A.517.517 0 011.665.53L1.61.384c-.184-.028-.294-.03-.33-.006l-.303.27A1.04 1.04 0 00.75.924l-.08.03a.735.735 0 00-.17.187l-.204.137c.265.493.415.696.449.61.016.017-.263-.267-.245-.285.76 1 1.986 2.253 3.083 3.195C5.084 6.144 6.01 7.045 6.36 7.502c3.443 3.36 5.25 5.15 5.423 5.37-.226.348.544.173.786-.148zM23.775 1.008c-.06-.071.174.04-.147-.201l-.11-.178c-.296-.218-.3-.086-.577-.408-.121-.166-.475.26-.548.31.011.347-.153.39-.446.611-.237.357-.737.91-1.5 1.661a223.525 223.525 0 00-3.378 3.379l-1.73 1.783-.797.797a5.84 5.84 0 00-.42.492l-.563.563c-.364.376-.714.708-1.052.998a5.046 5.046 0 00-.595.38l-.288.216-.146.056a.517.517 0 01-.044.242l-.146.056c-.029.184-.03.294-.006.33l.27.303c.084.096.176.171.276.226l.029.08a.735.735 0 00.188.17l.137.205c.492-.266.696-.415.61-.45.017-.016.016-.033-.002-.051 1-.76 1.97-1.69 2.912-2.787 1.346-1.5 2.247-2.426 2.704-2.776 3.36-3.443 5.15-5.25 5.37-5.423.16-.21.16-.404 0-.584z"/></svg>