<svg xmlns="http://www.w3.org/2000/svg" xmlns:xlink="http://www.w3.org/1999/xlink" xml:space="preserve" version="1.1" style="shape-rendering:geometricPrecision;text-rendering:geometricPrecision;image-rendering:optimizeQuality;" viewBox="0 0 846.66 1058.325" x="0px" y="0px" fill-rule="evenodd" clip-rule="evenodd"><defs><style type="text/css">
   
    .fil0 {fill:#FFF;fill-rule:nonzero}
   
  </style></defs><g><g><path class="fil0" d="M458.27 445.85l0 -40.22c-6.79,-0.52 -15.17,0.23 -24.72,2.02l-1.23 45.12c8.4,-2.37 17.05,-4.68 25.95,-6.92zm-55.21 -30.39c-7.18,2.22 -14.68,4.77 -22.41,7.57l-1.26 46.6c7.33,-2.61 14.79,-5.15 22.41,-7.62l1.26 -46.55zm-53 19.52c-7.33,3.05 -14.7,6.25 -22.07,9.56l-1.25 45.96c7.3,-3.17 14.64,-6.26 22.07,-9.25l1.25 -46.27zm-52.73 23.97c-6.99,3.43 -13.9,6.92 -20.66,10.42l-1.22 45.16c6.92,-3.45 13.79,-6.8 20.65,-10.05l1.23 -45.53zm-51.38 27c-6.79,3.82 -13.3,7.6 -19.46,11.29l-1.17 43.17c6.58,-3.49 13.05,-6.9 19.43,-10.23l1.2 -44.23zm-50.27 31c-6.79,4.73 -12.49,9.05 -16.86,12.82 -14.79,8.54 -2.5,39.73 12.38,28.89l3.41 -1.84 1.07 -39.87zm458.53 -34.88c9.26,2.06 17.56,6.76 24.07,13.26l0.03 0.03 0.03 0.02 0.11 0.12c8.85,8.93 14.32,21.18 14.32,34.64 0,8.22 -2.02,15.98 -5.59,22.8l30.71 75.56 53.54 23.86c18.16,8.1 5.85,35.75 -12.35,27.63l-58.33 -25.99c-3.81,-1.44 -7.04,-4.41 -8.69,-8.48l-19.62 -48.34 -19.81 56.6 70.01 79.51c13.17,14.96 -9.6,35 -22.77,20.05l-75.85 -86.14c-3.99,-4.53 -4.79,-10.8 -2.56,-16.01l25.17 -71.89c-1.02,0.06 -2.07,0.1 -3.12,0.1 -13.52,0 -25.82,-5.51 -34.76,-14.44l-0.03 -0.03 -0.03 -0.03 -0.11 -0.11c-8.86,-8.94 -14.32,-21.19 -14.32,-34.65l0 -0.31c-10.07,1.44 -20.8,2 -31.39,1.9l30.82 42.56c2.26,3.11 3.34,7.09 2.7,11.18l-15.52 100.31 72.89 71.71c14.2,13.96 -7.03,35.57 -21.23,21.6l-78.42 -77.14c-3.8,-3.74 -5.21,-9 -4.21,-13.87l15.64 -101.03 -40.55 -55.93c-24.4,26.69 -52.12,44.27 -82.06,56.3l10.76 63.95c0.62,3.76 -0.2,7.42 -2.04,10.43l-58.76 107.3c-9.53,17.48 -36.1,2.99 -26.58,-14.48l56.62 -103.4 -9.06 -53.94c-51.89,14.73 -108.95,17.27 -166.13,23.92l-161.77 52.23c-18.97,6.08 -28.22,-22.74 -9.26,-28.83l163.28 -52.72c1.79,-0.57 3.44,-0.7 5.28,-0.92 54.93,-6.41 112.26,-8.28 163.54,-23.79l-9.42 -56.09c-1.55,-9.34 5.79,-17.88 15.34,-17.61l69.55 2.1 -16.66 -20.89c-97.42,24.36 -176.51,61.3 -263.86,111.68 -52.41,32.44 -80.18,-48.89 -44.75,-79.49 29.01,-25.06 111.14,-72.18 185.4,-102.36 12.3,-5 24.47,-9.56 36.24,-13.48 -72.26,-4.04 -147.28,-17.59 -192.18,-66.3 -23.83,-25.87 -26.16,-57.13 12.42,-71.99 38.96,-15.03 79.35,-7.36 117.54,5.18 3.58,1.18 7.22,2.41 10.88,3.69 -28.95,-26.07 -57.71,-52.28 -86.02,-78.75 -34.38,-32.09 -34.99,-130.7 34.02,-118.83 82.79,14.27 192.16,159.21 234.3,234.91 11.23,20.18 20.66,39.64 25.16,54.19 8.51,0.78 17.06,3.18 25.21,7.88 11.2,6.47 22.78,16.3 33.56,27.03 14.88,14.8 28.56,31.52 37.54,43.12 12.73,16.44 19.14,30.68 20.73,42.89l0.05 0.45c0.31,2.62 0.43,5.14 0.35,7.57zm-45.5 13.26l-0.02 -0.01c4.03,-4.02 8.74,-7.35 13.96,-9.79 1.04,-2.06 1.49,-4.49 1.17,-7.32l-0.03 -0.24c-0.92,-7.08 -5.43,-16.36 -14.67,-28.3 -8.43,-10.87 -21.21,-26.51 -34.93,-40.16 -9.21,-9.16 -18.73,-17.35 -27.27,-22.28 -6.51,-3.75 -13.81,-4.8 -21.09,-4.25l-0.19 0.02c-14.02,1.11 -27.97,8.08 -36.12,12.89 -0.18,1.11 -0.48,2.2 -0.87,3.26l0 53.27 36.33 45.55c2.18,0.41 4.45,0.79 6.81,1.14 1.47,-0.04 2.94,0.15 4.39,0.6 19.21,2.43 42.89,2.79 61.97,-1.38 3.81,-0.83 7.37,-1.82 10.56,-3zm48.16 21.41c-3.36,-3.37 -8.1,-5.47 -13.36,-5.47 -1.15,0 -2.27,0.1 -3.37,0.3l-0.34 0.31c-3.61,3.19 -7.77,5.93 -12.36,8.27 -1.77,2.88 -2.81,6.31 -2.81,9.99 0,5.25 2.09,9.98 5.47,13.35l0.06 0.06c3.37,3.38 8.1,5.47 13.35,5.47 4.96,0 9.46,-1.87 12.77,-4.91l0.59 -0.62c3.41,-3.41 5.53,-8.13 5.53,-13.35 0,-5.25 -2.1,-9.98 -5.47,-13.35l-0.06 -0.05zm21.58 -21.24c5.78,5.93 5.72,15.44 -0.17,21.29l0.17 -21.29zm-69.87 69.29c-5.78,-5.94 -5.72,-15.44 0.17,-21.3l-0.17 21.3zm-170.84 -8.24c17.49,-7.71 33.98,-17.64 49.08,-30.62l-54.5 -1.65 5.42 32.27zm-26.95 -262.74c2.5,1.32 4.34,3.05 5.61,5 23.95,21.34 47.87,42.67 71.65,64.02 5.45,-2.43 11.58,-4.76 18.16,-6.56 -4.07,-10.74 -11.87,-26.1 -21.06,-42.62 -37.28,-66.98 -141.41,-207.41 -212.95,-219.73 -33.73,-5.8 -21.59,54.31 -8.26,66.76 48.12,44.91 97.48,89.1 146.85,133.13zm-16.63 25.82c-25.1,-10.73 -57.07,-23.67 -85.1,-32.88 -31.2,-10.24 -65.23,-18.11 -97.25,-5.77 -15.65,6.04 -11.13,12.28 -1.04,23.23 49.8,54.01 152,57.7 231.53,58.36 -16.01,-14.31 -32.07,-28.61 -48.14,-42.94z"/></g></g><text x="0" y="861.66" fill="#000000" font-size="5px" font-weight="bold" font-family="'Helvetica Neue', Helvetica, Arial-Unicode, Arial, Sans-serif">Created by jokokerto</text><text x="0" y="866.66" fill="#000000" font-size="5px" font-weight="bold" font-family="'Helvetica Neue', Helvetica, Arial-Unicode, Arial, Sans-serif">from the Noun Project</text></svg>